<?xml version="1.0" encoding="UTF-8" standalone="no"?>
<!-- Created with Inkscape (http://www.inkscape.org/) -->

<svg
   width="210mm"
   height="297mm"
   viewBox="0 0 210 297"
   version="1.1"
   id="svg5"
   inkscape:version="1.1 (c68e22c387, 2021-05-23)"
   sodipodi:docname="logo-guitare.svg"
   xmlns:inkscape="http://www.inkscape.org/namespaces/inkscape"
   xmlns:sodipodi="http://sodipodi.sourceforge.net/DTD/sodipodi-0.dtd"
   xmlns:xlink="http://www.w3.org/1999/xlink"
   xmlns="http://www.w3.org/2000/svg"
   xmlns:svg="http://www.w3.org/2000/svg">
  <sodipodi:namedview
     id="namedview7"
     pagecolor="#ffffff"
     bordercolor="#666666"
     borderopacity="1.0"
     inkscape:pageshadow="2"
     inkscape:pageopacity="0.0"
     inkscape:pagecheckerboard="0"
     inkscape:document-units="mm"
     showgrid="false"
     inkscape:zoom="2.9647587"
     inkscape:cx="271.017"
     inkscape:cy="436.12318"
     inkscape:window-width="1199"
     inkscape:window-height="1008"
     inkscape:window-x="712"
     inkscape:window-y="0"
     inkscape:window-maximized="0"
     inkscape:current-layer="layer1" />
  <defs
     id="defs2" />
  <g
     inkscape:label="Calque 1"
     inkscape:groupmode="layer"
     id="layer1">
    <path
       id="path846"
       style="display:none;fill:#000000;fill-opacity:1;fill-rule:evenodd;stroke:none;stroke-width:0.990236;stroke-miterlimit:4;stroke-dasharray:none"
       d="m 266.36133,391.13477 a 37.12871,37.128714 0 0 0 -37.12891,37.1289 37.12871,37.128714 0 0 0 0.54883,6.2461 49.50495,49.50495 0 0 1 42.88672,-42.83204 37.12871,37.128714 0 0 0 -6.30664,-0.54296 z m 6.30664,0.54296 a 37.12871,37.128714 0 0 1 30.82226,36.58594 37.12871,37.128714 0 0 1 -37.1289,37.12695 37.12871,37.128714 0 0 1 -36.58008,-30.88085 49.50495,49.50495 0 0 0 -0.42578,6.2539 49.50495,49.50495 0 0 0 49.50586,49.50391 49.50495,49.50495 0 0 0 49.5039,-49.50391 49.50495,49.50495 0 0 0 -49.5039,-49.50586 49.50495,49.50495 0 0 0 -6.19336,0.41992 z"
       transform="scale(0.26458333)" />
    <circle
       style="display:inline;fill:none;fill-rule:evenodd;stroke:#000000;stroke-width:0.229218;stroke-miterlimit:4;stroke-dasharray:none"
       id="path846-3-4"
       cx="112.99017"
       cy="74.875114"
       r="11.460912"
       transform="matrix(-0.02411727,0.99970914,0.99970914,0.02411727,0,0)" />
    <circle
       style="display:inline;fill:none;fill-rule:evenodd;stroke:#000000;stroke-width:0.229218;stroke-miterlimit:4;stroke-dasharray:none"
       id="path846-3-4-7"
       cx="116.39978"
       cy="-69.456108"
       r="11.460912"
       transform="rotate(88.675395)" />
    <text
       xml:space="preserve"
       style="font-style:normal;font-variant:normal;font-weight:bold;font-stretch:normal;font-size:3.175px;line-height:1.25;font-family:'Century Gothic';-inkscape-font-specification:'Century Gothic, Bold';font-variant-ligatures:normal;font-variant-caps:normal;font-variant-numeric:normal;font-variant-east-asian:normal;display:inline;fill:#000000;fill-opacity:1;stroke:none;stroke-width:0.264583"
       id="text10367"
       transform="translate(0,-0.52916667)"><textPath
         xlink:href="#path846-3-4-7"
         startOffset="50%"
         id="textPath56460"><tspan
           id="tspan10365"
           style="font-style:normal;font-variant:normal;font-weight:bold;font-stretch:normal;font-size:3.175px;font-family:'Century Gothic';-inkscape-font-specification:'Century Gothic, Bold';font-variant-ligatures:normal;font-variant-caps:normal;font-variant-numeric:normal;font-variant-east-asian:normal;text-align:center;text-anchor:middle;stroke-width:0.264583">♬ Boutique de Guitare ♬</tspan></textPath></text>
    <text
       xml:space="preserve"
       style="font-style:normal;font-variant:normal;font-weight:bold;font-stretch:normal;font-size:3.175px;line-height:1.25;font-family:'Century Gothic';-inkscape-font-specification:'Century Gothic, Bold';font-variant-ligatures:normal;font-variant-caps:normal;font-variant-numeric:normal;font-variant-east-asian:normal;display:inline;fill:#000000;fill-opacity:1;stroke:none;stroke-width:0.264583"
       id="text34737"
       transform="matrix(-1.0705113,0.01479984,-0.02479704,-0.89898222,152.14952,220.70234)"><textPath
         xlink:href="#path846-3-4"
         startOffset="50%"
         id="textPath56463"><tspan
           id="tspan34735"
           style="font-style:normal;font-variant:normal;font-weight:bold;font-stretch:normal;font-size:3.175px;font-family:'Century Gothic';-inkscape-font-specification:'Century Gothic, Bold';font-variant-ligatures:normal;font-variant-caps:normal;font-variant-numeric:normal;font-variant-east-asian:normal;text-align:center;text-anchor:middle;stroke-width:0.264583">★ Depuis 1973 ★</tspan></textPath></text>
    <path
       style="fill:#000000;stroke-width:0.05135"
       d="m 66.723946,122.74426 c -1.024472,-0.53571 -1.468051,-0.87343 -1.999545,-1.52224 -0.803531,-0.9809 -1.084643,-1.86632 -0.953013,-3.00176 0.184025,-1.5874 0.862391,-2.55471 3.029176,-4.31938 1.179281,-0.96043 1.583214,-1.44406 2.061734,-2.46849 0.338537,-0.72475 0.469285,-1.27531 0.649045,-2.73306 0.273176,-2.21525 0.593751,-3.1075 1.564148,-4.35347 0.483839,-0.62124 1.18468,-1.03247 1.637605,-0.9609 0.360747,0.0571 0.663677,0.1748 0.781802,0.30382 0.213781,0.23353 0.193663,0.45681 -0.15072,1.67462 -0.28323,1.00154 -0.336103,1.38117 -0.248409,1.78351 0.101861,0.46734 0.344323,0.76798 0.786437,0.97511 0.19411,0.0909 0.257903,0.0929 0.49699,0.0154 l 0.27433,-0.089 0.273035,-0.49131 c 0.150189,-0.27023 0.818313,-1.62661 1.484755,-3.01417 1.294309,-2.69481 2.549296,-5.239372 3.953117,-8.015102 1.031692,-2.039945 1.583468,-3.276564 1.590439,-3.564471 0.0069,-0.285846 -0.09519,-0.495013 -0.465957,-0.954448 -0.279561,-0.346403 -0.330936,-0.44254 -0.334128,-0.625111 -0.0036,-0.206693 0.0066,-0.229288 0.243303,-0.538119 0.378864,-0.494284 2.572541,-3.10572 3.45863,-4.117277 1.282681,-1.464321 1.592517,-1.717508 2.186757,-1.78697 0.272798,-0.03188 0.324258,-0.01978 0.738666,0.173793 0.401418,0.187506 0.45854,0.228062 0.575107,0.416493 0.210774,0.338739 0.30105,0.719419 0.24943,1.051794 -0.09323,0.60025 -0.456588,0.940568 -1.224329,1.146668 -0.28913,0.07762 -0.516717,0.172494 -0.569548,0.237439 -0.140021,0.17212 -0.264375,0.7156 -0.363348,1.588001 -0.119915,1.056866 -0.241315,1.592953 -0.514701,2.272846 l -0.223985,0.557039 -0.21383,-0.0088 c -0.323399,-0.01338 -0.611516,0.06642 -0.816195,0.225943 -0.284154,0.221475 -0.615517,0.692017 -0.760773,1.080316 -0.270504,0.723143 -1.139872,2.724326 -2.333355,5.371142 -0.452799,1.004194 -0.989143,2.207394 -1.191861,2.673804 -0.202745,0.46639 -0.695214,1.57533 -1.094408,2.46429 -0.399194,0.88896 -0.965048,2.1549 -1.257453,2.81319 -0.292392,0.6583 -0.827677,1.86201 -1.189475,2.67493 -0.371507,0.83472 -0.662409,1.54251 -0.668369,1.6262 -0.0058,0.0815 0.02708,0.20898 0.07303,0.28331 0.121617,0.1968 0.602585,0.44798 1.069894,0.55892 0.883815,0.20978 1.25958,0.0473 2.051929,-0.88709 0.543554,-0.64102 0.802547,-0.73449 1.070746,-0.38646 0.14455,0.18747 0.268663,0.64198 0.265238,0.9709 -0.0045,0.42752 -0.151424,0.89969 -0.476794,1.53182 -0.355469,0.69061 -0.643661,1.0437 -1.529276,1.87366 -0.59417,0.55683 -0.687535,0.66487 -0.866298,1.00246 -0.26033,0.49163 -0.2715,0.62589 -0.218446,2.62819 0.05825,2.19895 -0.04364,2.83732 -0.639835,4.00853 -0.258863,0.50855 -0.365315,0.67081 -0.60036,0.91522 -0.715169,0.74365 -1.793175,1.19905 -2.909796,1.22923 -0.835461,0.0226 -1.912925,-0.1962 -3.049346,-0.61917 -0.900414,-0.33516 -2.699834,-1.14779 -3.701881,-1.67167 z m 9.223927,-0.1481 c 0.248686,-0.0377 0.328934,-0.10072 0.443198,-0.3481 0.277174,-0.6 0.441907,-1.94697 0.462106,-3.77784 0.01606,-1.4564 0.0606,-1.81775 0.298368,-2.42087 0.231822,-0.58802 0.351709,-0.73901 1.281075,-1.61403 1.047698,-0.98638 1.228507,-1.20957 1.578367,-1.94828 0.252532,-0.53306 0.285959,-0.63596 0.287841,-0.88363 0.0035,-0.46352 -0.116404,-0.68197 -0.262946,-0.47914 -0.638367,0.88356 -1.087942,1.28799 -1.616256,1.45394 -0.751653,0.23611 -1.290907,0.11625 -1.954914,-0.43454 -0.213423,-0.17706 -0.41785,-0.35367 -0.454249,-0.39253 -0.05788,-0.0617 -0.08015,-0.0408 -0.177173,0.16697 l -0.110979,0.23759 -1.209654,-0.56504 -1.209644,-0.56504 0.378748,-0.81083 0.378751,-0.81084 -0.220639,-0.22533 c -0.257709,-0.26315 -0.505699,-0.35694 -0.698394,-0.26419 -0.155238,0.0747 -0.225368,0.2171 -0.292838,0.59457 -0.09262,0.51812 -0.448128,1.54298 -0.693921,2.00046 -0.305621,0.56884 -0.640757,0.96732 -1.557529,1.85188 -0.931772,0.89903 -1.085555,1.07254 -1.350331,1.52353 -0.44704,0.76144 -0.537338,1.36077 -0.295716,1.9626 0.220777,0.5499 0.259423,0.57751 1.606414,1.14774 1.100289,0.46583 2.974096,1.43481 3.305774,1.70973 0.372227,0.30846 0.647817,0.71385 0.876116,1.28894 0.524827,1.32208 0.784636,1.66656 1.208423,1.60233 z m -4.208742,-5.55319 c -0.454519,-0.32826 -0.874935,-0.63617 -0.934196,-0.68437 -0.237436,-0.19313 -0.02721,-0.69995 0.277785,-0.66971 0.108406,0.0107 0.384472,0.18069 1.07545,0.66621 0.51133,0.35849 0.976785,0.69717 1.034304,0.75271 0.113485,0.10963 0.11696,0.37494 0.0063,0.48768 -0.136375,0.13901 -0.349752,0.18935 -0.492574,0.11623 -0.07743,-0.0395 -0.512584,-0.34054 -0.967121,-0.66876 z m -0.06495,-2.89742 c -0.07513,-0.22887 0.04532,-0.49046 0.249222,-0.54111 0.13572,-0.0337 0.243542,0.008 1.282883,0.49318 1.072672,0.50106 1.137252,0.53785 1.184302,0.66652 0.07582,0.20874 -0.07488,0.49115 -0.288747,0.54113 -0.158865,0.0371 -0.225216,0.0123 -1.269844,-0.47568 l -1.102212,-0.51485 z m 1.129391,-2.14428 c -0.06354,-0.0681 -0.07307,-0.35668 -0.0158,-0.47929 0.02501,-0.0536 0.120911,-0.12485 0.213064,-0.15832 l 0.167522,-0.0608 1.141971,0.53343 c 1.079941,0.50445 1.14449,0.54122 1.191571,0.66991 0.07583,0.20873 -0.07488,0.49116 -0.288746,0.54113 -0.159288,0.0372 -0.222168,0.0134 -1.26461,-0.4777 -0.603009,-0.28498 -1.118571,-0.54004 -1.145003,-0.56828 z"
       id="path81308" />
  </g>
</svg>
