<?xml version="1.0" encoding="UTF-8" standalone="no"?>
<!-- Created with Inkscape (http://www.inkscape.org/) -->

<svg
   width="210mm"
   height="297mm"
   viewBox="0 0 210 297"
   version="1.1"
   id="svg5"
   inkscape:version="1.1 (c68e22c387, 2021-05-23)"
   sodipodi:docname="logo-guitare.svg"
   xmlns:inkscape="http://www.inkscape.org/namespaces/inkscape"
   xmlns:sodipodi="http://sodipodi.sourceforge.net/DTD/sodipodi-0.dtd"
   xmlns:xlink="http://www.w3.org/1999/xlink"
   xmlns="http://www.w3.org/2000/svg"
   xmlns:svg="http://www.w3.org/2000/svg">
  <sodipodi:namedview
     id="namedview7"
     pagecolor="#ffffff"
     bordercolor="#666666"
     borderopacity="1.0"
     inkscape:pageshadow="2"
     inkscape:pageopacity="0.0"
     inkscape:pagecheckerboard="0"
     inkscape:document-units="mm"
     showgrid="false"
     inkscape:zoom="2.9647587"
     inkscape:cx="271.35429"
     inkscape:cy="431.73834"
     inkscape:window-width="1199"
     inkscape:window-height="1008"
     inkscape:window-x="712"
     inkscape:window-y="0"
     inkscape:window-maximized="0"
     inkscape:current-layer="layer1" />
  <defs
     id="defs2" />
  <g
     inkscape:label="Calque 1"
     inkscape:groupmode="layer"
     id="layer1">
    <path
       style="display:inline;fill:#000000;stroke-width:0.0493919"
       d="m 67.151606,124.3415 c -1.036837,-0.40187 -1.497143,-0.67698 -2.074936,-1.23998 -0.873529,-0.85118 -1.237441,-1.66725 -1.233727,-2.76671 0.0051,-1.53707 0.549575,-2.53462 2.430898,-4.45436 1.023917,-1.04485 1.358001,-1.55056 1.705222,-2.5812 0.245647,-0.72915 0.311416,-1.26945 0.326473,-2.68215 0.02289,-2.14678 0.233355,-3.0341 1.026907,-4.32941 0.395663,-0.64584 1.021329,-1.11426 1.461948,-1.09457 0.350958,0.0158 0.653164,0.0957 0.779947,0.20635 0.229453,0.20021 0.234236,0.41579 0.03603,1.61686 -0.163018,0.98776 -0.172731,1.35631 -0.04564,1.73145 0.147624,0.43574 0.411704,0.69703 0.856567,0.84748 0.195306,0.0659 0.256498,0.061 0.476697,-0.0387 l 0.252648,-0.11455 0.208141,-0.49897 c 0.114498,-0.27444 0.607251,-1.64276 1.095045,-3.04072 0.947352,-2.71498 1.87328,-5.28212 2.916604,-8.08623 0.766757,-2.0608 1.161181,-3.302141 1.136883,-3.578083 -0.02411,-0.273969 -0.144219,-0.462915 -0.548018,-0.862188 -0.304464,-0.301042 -0.36391,-0.387408 -0.386595,-0.561573 -0.02571,-0.197171 -0.01837,-0.219869 0.174691,-0.540517 0.308976,-0.513197 2.124944,-3.245205 2.863118,-4.307376 1.068564,-1.537589 1.337489,-1.812913 1.898016,-1.94321 0.25732,-0.05981 0.30781,-0.05377 0.724733,0.08667 0.403853,0.136059 0.462814,0.16868 0.594497,0.336253 0.237892,0.301112 0.365118,0.655272 0.351522,0.97852 -0.02456,0.583766 -0.335277,0.948129 -1.046948,1.22769 -0.268014,0.105284 -0.475348,0.220441 -0.518861,0.288199 -0.115327,0.179576 -0.175744,0.712427 -0.176532,1.556943 -9.81e-4,1.023087 -0.05936,1.548553 -0.247551,2.227818 l -0.154191,0.556525 -0.205334,0.01457 c -0.310556,0.02199 -0.577366,0.12925 -0.755851,0.303737 -0.247787,0.24225 -0.513915,0.727647 -0.611,1.114418 -0.180791,0.720294 -0.796563,2.726588 -1.652702,5.384864 -0.324814,1.00853 -0.708081,2.21627 -0.851689,2.68388 -0.143638,0.4676 -0.495103,1.58053 -0.78107,2.47315 -0.285966,0.89264 -0.690694,2.1635 -0.899394,2.82418 -0.208687,0.66066 -0.590885,1.86878 -0.849287,2.68471 -0.265336,0.83779 -0.467275,1.54561 -0.463973,1.62625 0.0033,0.0785 0.04836,0.19685 0.100271,0.26294 0.137408,0.17503 0.624146,0.3634 1.082747,0.4192 0.86734,0.10545 1.209046,-0.0902 1.865911,-1.06859 0.450615,-0.67116 0.68812,-0.78834 0.9819,-0.48454 0.158326,0.16366 0.325834,0.58473 0.357933,0.89949 0.04171,0.40913 -0.04799,0.87625 -0.291008,1.51546 -0.265505,0.69832 -0.502998,1.06683 -1.260249,1.95536 -0.508049,0.59614 -0.585672,0.70944 -0.720235,1.05135 -0.195965,0.49791 -0.192203,0.62745 0.07384,2.53562 0.292151,2.09556 0.26341,2.71669 -0.18051,3.90029 -0.192743,0.51394 -0.277044,0.68047 -0.475423,0.93937 -0.603613,0.78772 -1.585039,1.33892 -2.649099,1.48786 -0.796137,0.11144 -1.849543,0.0181 -2.981261,-0.26392 -0.896691,-0.22353 -2.704029,-0.80676 -3.718159,-1.19974 z m 8.800635,-1.13348 c 0.233647,-0.0628 0.303577,-0.13164 0.386193,-0.38037 0.200408,-0.60332 0.213015,-1.90851 0.03544,-3.6607 -0.141263,-1.39381 -0.13755,-1.74399 0.02486,-2.34605 0.158348,-0.58698 0.256704,-0.74419 1.050927,-1.6805 0.895356,-1.05549 1.044177,-1.28827 1.299147,-2.03198 0.184055,-0.53668 0.20494,-0.63863 0.180105,-0.87555 -0.04648,-0.44344 -0.1846,-0.63933 -0.30286,-0.42971 -0.515157,0.91319 -0.901386,1.34811 -1.388521,1.56354 -0.693066,0.30652 -1.221397,0.24991 -1.915306,-0.20511 -0.22304,-0.1463 -0.437431,-0.29313 -0.476401,-0.32637 -0.06195,-0.0528 -0.08099,-0.0304 -0.151392,0.17865 l -0.08053,0.23903 -1.216994,-0.40998 -1.216985,-0.41002 0.274826,-0.81576 0.274827,-0.81574 -0.235126,-0.19166 c -0.274626,-0.22382 -0.521749,-0.28679 -0.695959,-0.17741 -0.140344,0.0881 -0.192069,0.23174 -0.215968,0.5998 -0.03281,0.5052 -0.262406,1.52303 -0.448148,1.98673 -0.230952,0.57659 -0.508435,0.99351 -1.289595,1.93759 -0.793942,0.95952 -0.922274,1.14192 -1.126858,1.60146 -0.345414,0.77589 -0.367274,1.35845 -0.0716,1.90771 0.270163,0.50188 0.31007,0.52412 1.658895,0.92431 1.101789,0.32694 2.997045,1.05162 3.343639,1.27873 0.388959,0.2548 0.695974,0.61266 0.976033,1.1378 0.643822,1.20724 0.929202,1.50858 1.327364,1.40162 z m -4.620046,-4.85533 c -0.469746,-0.26489 -0.904706,-0.51398 -0.966534,-0.55369 -0.247719,-0.15907 -0.101272,-0.6661 0.193498,-0.67001 0.104757,-8.1e-4 0.386922,0.13136 1.099596,0.52114 0.5273,0.28767 1.008619,0.56134 1.069571,0.60824 0.120267,0.0926 0.152111,0.3458 0.05851,0.46546 -0.115402,0.14755 -0.313944,0.2186 -0.458321,0.16405 -0.07827,-0.0293 -0.526567,-0.27036 -0.996325,-0.53521 z m -0.373668,-2.76249 c -0.09642,-0.21068 -0.0094,-0.47366 0.180027,-0.54401 0.126099,-0.0467 0.23367,-0.0183 1.279262,0.33345 1.079182,0.36357 1.144866,0.39179 1.203676,0.50973 0.09492,0.19136 -0.01877,0.4775 -0.217804,0.54827 -0.147855,0.0525 -0.213943,0.0361 -1.264916,-0.31811 l -1.108901,-0.37358 z m 0.848922,-2.17102 c -0.06805,-0.0582 -0.1082,-0.33307 -0.06664,-0.45643 0.01815,-0.0539 0.102138,-0.13234 0.18663,-0.17423 l 0.15359,-0.0761 1.148901,0.38707 c 1.086493,0.36603 1.152147,0.39425 1.210987,0.51218 0.09493,0.19135 -0.01875,0.47752 -0.217801,0.54827 -0.148249,0.0528 -0.210916,0.0368 -1.26013,-0.32059 -0.607026,-0.20754 -1.127247,-0.39591 -1.155549,-0.42005 z"
       id="path81308" />
    <path
       id="path81524"
       style="fill:#ffff00;fill-opacity:1;stroke:#ff0000;stroke-width:0.273508;stroke-miterlimit:4;stroke-dasharray:none"
       d="M 72.154296,101.71685 A 13.229141,13.229137 0 0 0 58.92513,114.94602 13.229141,13.229137 0 0 0 72.154296,128.17518 13.229141,13.229137 0 0 0 85.383463,114.94602 13.229141,13.229137 0 0 0 72.154296,101.71685 Z m -0.07178,3.19047 a 9.9218555,9.9218528 0 0 1 9.921875,9.92187 9.9218555,9.9218528 0 0 1 -9.921875,9.92188 9.9218555,9.9218528 0 0 1 -9.921874,-9.92188 9.9218555,9.9218528 0 0 1 9.921874,-9.92187 z" />
    <circle
       style="display:inline;fill:none;fill-rule:evenodd;stroke:none;stroke-width:0.229218;stroke-miterlimit:4;stroke-dasharray:none"
       id="path846-3-4"
       cx="112.99017"
       cy="74.875114"
       r="11.460912"
       transform="matrix(-0.02411727,0.99970914,0.99970914,0.02411727,0,0)" />
    <circle
       style="display:inline;fill:none;fill-rule:evenodd;stroke:none;stroke-width:0.229218;stroke-miterlimit:4;stroke-dasharray:none"
       id="path846-3-4-7"
       cx="116.39978"
       cy="-69.456108"
       r="11.460912"
       transform="rotate(88.675395)" />
    <text
       xml:space="preserve"
       style="font-style:normal;font-variant:normal;font-weight:bold;font-stretch:normal;font-size:2.46944px;line-height:1.25;font-family:'Century Gothic';-inkscape-font-specification:'Century Gothic, Bold';font-variant-ligatures:normal;font-variant-caps:normal;font-variant-numeric:normal;font-variant-east-asian:normal;display:inline;fill:#000000;fill-opacity:1;stroke:none;stroke-width:0.264583"
       id="text10367"
       transform="translate(-0.17848558,0.89871795)"><textPath
         xlink:href="#path846-3-4-7"
         startOffset="50%"
         id="textPath56460"><tspan
           id="tspan10365"
           style="font-style:normal;font-variant:normal;font-weight:bold;font-stretch:normal;font-size:2.46944px;font-family:'Century Gothic';-inkscape-font-specification:'Century Gothic, Bold';font-variant-ligatures:normal;font-variant-caps:normal;font-variant-numeric:normal;font-variant-east-asian:normal;text-align:center;text-anchor:middle;stroke-width:0.264583">     ♬ Boutique de     Guitare ♬</tspan></textPath></text>
    <text
       xml:space="preserve"
       style="font-style:normal;font-variant:normal;font-weight:bold;font-stretch:normal;font-size:2.51678px;line-height:1.25;font-family:'Century Gothic';-inkscape-font-specification:'Century Gothic, Bold';font-variant-ligatures:normal;font-variant-caps:normal;font-variant-numeric:normal;font-variant-east-asian:normal;display:inline;fill:#000000;fill-opacity:1;stroke:none;stroke-width:0.264583"
       id="text34737"
       transform="matrix(-1.0705113,0.01479984,-0.02479704,-0.89898222,152.23876,219.00673)"><textPath
         xlink:href="#path846-3-4"
         startOffset="50%"
         id="textPath56463"><tspan
           id="tspan34735"
           style="font-style:normal;font-variant:normal;font-weight:bold;font-stretch:normal;font-size:2.51678px;font-family:'Century Gothic';-inkscape-font-specification:'Century Gothic, Bold';font-variant-ligatures:normal;font-variant-caps:normal;font-variant-numeric:normal;font-variant-east-asian:normal;text-align:center;text-anchor:middle;stroke-width:0.264583">★ Depuis 1973 ★</tspan></textPath></text>
  </g>
</svg>
