<?xml version="1.0" encoding="UTF-8" standalone="no"?>
<svg width="200" height="160" viewBox="0 0 51 40" xmlns="http://www.w3.org/2000/svg">
  <g>
    <path d="m 25.000998,4.417569 q 0,1.204709 -0.690338,1.915352 -0.690339,0.707259 -1.908584,0.707259 -1.214861,0 -1.9052,-0.707259 -0.690338,-0.710643 -0.690338,-1.915352 0,-1.214861 0.690338,-1.918736 0.690339,-0.707258 1.9052,-0.707258 1.211477,0 1.9052,0.707258 0.693722,0.703875 0.693722,1.918736 z M 23.278536,5.693342 Q 23.46804,5.463229 23.559409,5.1519 q 0.09137,-0.314713 0.09137,-0.737715 0,-0.453458 -0.104904,-0.771555 Q 23.44097,3.324533 23.27177,3.12826 23.099185,2.925219 22.872456,2.833851 q -0.223345,-0.09137 -0.466994,-0.09137 -0.247033,0 -0.466994,0.08798 -0.216577,0.08798 -0.399313,0.291025 -0.169201,0.189505 -0.27749,0.524522 -0.104904,0.331633 -0.104904,0.771555 0,0.450074 0.10152,0.768171 0.104905,0.314714 0.274105,0.51437 0.169201,0.199657 0.39593,0.29441 0.226729,0.09475 0.477146,0.09475 0.250417,0 0.477146,-0.09475 0.226729,-0.09814 0.39593,-0.301178 z" />
    <path d="m 6.0336,36.1679 c 0,0.8031 -0.23012,1.4416 -0.69034,1.9153 -0.46023,0.4715 -1.09642,0.7073 -1.90859,0.7073 -0.8099,0 -1.44497,-0.2358 -1.9052,-0.7073 -0.46022,-0.4737 -0.690334,-1.1122 -0.690334,-1.9153 0,-0.8099 0.230114,-1.4495 0.690334,-1.9188 0.46023,-0.4715 1.0953,-0.7072 1.9052,-0.7072 0.80766,0 1.44272,0.2357 1.9052,0.7072 0.46249,0.4693 0.69373,1.1089 0.69373,1.9188 z m -1.72247,1.2758 c 0.12634,-0.1535 0.21996,-0.3339 0.28088,-0.5415 0.06091,-0.2098 0.09137,-0.4557 0.09137,-0.7377 0,-0.3023 -0.03497,-0.5595 -0.10491,-0.7716 C 4.50854,35.1809 4.41717,35.0094 4.30437,34.8786 4.18931,34.7432 4.05621,34.6451 3.90505,34.5842 3.75616,34.5232 3.60049,34.4928 3.43806,34.4928 c -0.16469,0 -0.32035,0.0293 -0.46699,0.088 -0.14439,0.0586 -0.27749,0.1556 -0.39932,0.291 -0.1128,0.1263 -0.20529,0.3012 -0.27749,0.5245 -0.06993,0.2211 -0.1049,0.4783 -0.1049,0.7716 0,0.3 0.03384,0.5561 0.10152,0.7681 0.06994,0.2099 0.1613,0.3813 0.2741,0.5144 0.1128,0.1331 0.24478,0.2313 0.39593,0.2944 0.15116,0.0632 0.31021,0.0948 0.47715,0.0948 0.16694,0 0.32599,-0.0316 0.47715,-0.0948 0.15115,-0.0654 0.28313,-0.1658 0.39593,-0.3012 z" />
    <path d="m 20.507792,26.305676 1.186491,0.376204 q -0.272851,0.992188 -0.909505,1.47588 -0.63252,0.479557 -1.608172,0.479557 -1.207161,0 -1.984375,-0.822689 -0.777214,-0.826823 -0.777214,-2.257228 0,-1.513086 0.781348,-2.348178 0.781348,-0.839225 2.054656,-0.839225 1.112077,0 1.806608,0.657324 0.413412,0.388607 0.620118,1.116212 l -1.211296,0.289388 q -0.107487,-0.471289 -0.450619,-0.744141 -0.338997,-0.272852 -0.826823,-0.272852 -0.673861,0 -1.095541,0.483692 -0.417546,0.483691 -0.417546,1.56683 0,1.149284 0.413412,1.63711 0.413412,0.487826 1.07487,0.487826 0.487826,0 0.839226,-0.310059 0.3514,-0.310059 0.504362,-0.975651 z" />
    <path d="M 22.748483,28.533964 V 22.47335 h 1.223698 v 2.385385 h 2.397788 V 22.47335 h 1.223698 v 6.060614 h -1.223698 v -2.649968 h -2.397788 v 2.649968 z" />
  </g>
  <g stroke-width="1.5" stroke="#000" fill="none">
    <path d="M 6.9733452,33.412659 13.244533,29.795344" />
    <path d="M 8.0355432,35.381701 14.306731,31.764386" />
    <path d="m 45.982475,25.184051 -4.771276,6.15314" />
    <path d="m 22.276053,14.916495 9.492472,5.118973 0.0497,10.38705 -8.746987,5.765061 -9.740963,-5.168675 -0.198795,-11.132531 z" />
    <path d="m 34.014267,21.015128 v 8.645019" />
    <path d="m 31.768525,20.035468 9.769737,-3.096852 7.309612,8.645019 -6.817617,8.293595 -10.212033,-3.454712 z" />
    <path d="m 21.047772,8.243898 -0.07028,7.239325" />
    <path d="m 23.756232,8.153026 v 7.309609" />
  </g>
</svg>
