<?xml version="1.0" encoding="UTF-8" standalone="no"?>
<svg viewBox="0 0 210 297" xmlns="http://www.w3.org/2000/svg">
    <circle
       style="fill:#000000;fill-opacity:1;stroke:none;stroke-width:20.2046;stroke-linecap:round;stroke-linejoin:round;stroke-miterlimit:4;stroke-dasharray:none"
      
       cx="61.427711"
       cy="58.34639"
       r="2.9819276" />
    <circle
       style="fill:#000000;fill-opacity:1;stroke:none;stroke-width:20.2046;stroke-linecap:round;stroke-linejoin:round;stroke-miterlimit:4;stroke-dasharray:none"

       cx="47.114456"
       cy="72.560242"
       r="2.9819276" />
    <circle
       style="fill:none;fill-opacity:1;stroke:#000000;stroke-width:3.87799;stroke-linejoin:round;stroke-miterlimit:4;stroke-dasharray:none"

       cx="13.804102"
       cy="41.138439"
       r="6.6599627" />
    <circle
       style="fill:none;fill-opacity:1;stroke:#000000;stroke-width:3.87799;stroke-linejoin:round;stroke-miterlimit:4;stroke-dasharray:none"

       cx="36.401459"
       cy="12.943628"
       r="6.6599627" />
    <circle
       style="fill:none;fill-opacity:1;stroke:#000000;stroke-width:3.87799;stroke-linejoin:round;stroke-miterlimit:4;stroke-dasharray:none"

       cx="30.519949"
       cy="86.744881"
       r="6.6599627" />
    <ellipse
       style="fill:none;fill-opacity:1;stroke:#000000;stroke-width:3.175;stroke-linejoin:round;stroke-miterlimit:4;stroke-dasharray:none"

       cx="30.578447"
       cy="61.888687"
       rx="3.5114081"
       ry="3.5114067" />
    <ellipse
       style="fill:none;fill-opacity:1;stroke:#000000;stroke-width:3.175;stroke-linejoin:round;stroke-miterlimit:4;stroke-dasharray:none"

       cx="13.915663"
       cy="101.48495"
       rx="3.5114081"
       ry="3.5114067" />
    <ellipse
       style="fill:none;fill-opacity:1;stroke:#000000;stroke-width:3.175;stroke-linejoin:round;stroke-miterlimit:4;stroke-dasharray:none"

       cx="42.555859"
       cy="39.424835"
       rx="3.511409"
       ry="3.5114086" />
    <circle cx="67.391556" cy="32.552711" r="1.689759" />
    <circle cx="68.28614"  cy="45.225906" r="0.99397588" />
    <circle cx="9.7409639" cy="11.92771"  r="1.689759" />
    <circle cx="28.8253"   cy="28.228914" r="1.689759" />
    <circle cx="48.506023" cy="58.445786" r="1.689759" />
    <circle cx="57.849396" cy="44.132534" r="1.689759" />
    <circle cx="68.783134" cy="68.981934" r="1.689759" />
    <circle cx="42.542168" cy="100.59036" r="1.689759" />
    <circle cx="10.138554" cy="78.921684" r="1.689759" />
    <circle cx="68.385536" cy="21.867472" r="0.99397588" />
    <circle cx="73.554222" cy="56.259033" r="0.99397588" />
    <circle cx="65.602409"
       cy="79.518074"
       r="0.99397588" />
    <circle
       style="fill:none;fill-opacity:1;stroke:#000000;stroke-width:3.87799;stroke-linejoin:round;stroke-miterlimit:4;stroke-dasharray:none"

       cx="87.469879"
       cy="43.337349"
       r="6.6599627" />
    <circle
       style="fill:none;fill-opacity:1;stroke:#000000;stroke-width:3.87799;stroke-linejoin:round;stroke-miterlimit:4;stroke-dasharray:none"
       cx="75.54216" cy="88.662651" r="6.6599627" />
    <circle cx="86.674698" cy="67.192772" r="2.9819276" />
    <circle cx="60.036144" cy="14.313253" r="2.9819276" />
    <circle cx="82.301201" cy="22.265059" r="2.9819276" />
    <circle cx="14.710844" cy="61.626503" r="1.689759" />
    <circle cx="86.674698" cy="77.530121" r="1.689759" />
    <circle cx="52.481926" cy="87.469887" r="0.99397588" />
    <circle cx="51.686745" cy="28.626505" r="0.99397588" />
    <circle cx="30.614458" cy="52.879517" r="0.99397588" />
    <circle cx="15.903614" cy="22.662649" r="0.99397588" />
</svg>
