<?xml version="1.0" encoding="UTF-8" standalone="no"?>
<svg width="1260" height="1785" viewBox="0 0 1260 1785" xmlns="http://www.w3.org/2000/svg">
  <path d="m 695.96646,1662.6513 c 37,-74 132,-228 252,-406 C 1216.9664,855.65125 1249.0708,759.63475 1248.9664,582.65125 1248.7458,208.87999 967.99454,7.1355249 637.14475,9.6334231 306.29496,12.131321 25.804761,209.82614 24.966461,592.65126 c -0.359,163.92342 168.725599,472.08794 284.999999,643.00004 171,250 229,343 286,462 l 41,85 z m -318,-711.00005 c -9,-8 -16,-20 -16,-25.99999 0,-7.00001 269,-365.00001 451,-600.00001 12,-15.99999 23,-18.99999 43,-14 45,11 33,45.00001 -57,162.00001 -46,59.99999 -149,195.99999 -231,301.99999 -81,105.00001 -153,192.00001 -161,192.00001 -7,0 -21,-7 -29,-16.00001 z m 339,-38.99999 c -90,-68.00001 -86,-199.00001 9,-269.00001 41,-30.99999 139,-29 185,3 37,27 70,90 71,136 0,50.00001 -40,117.00001 -85,143.00001 -55,31.99999 -129,27 -180,-13 z m -353,-322.00001 c -67,-50 -90,-131 -58,-206.99999 35,-83.00001 150,-120.00001 231,-74 46,25.99999 85,92.99999 85,145.99999 0,61.00001 -49,130.00001 -110,155 -30,13 -121,1.00001 -148,-20 z"/>
  <path d="m 858.96646,855.65125 c 27,-13 47,-60 39,-93 -24,-96 -166,-80 -166,20 0,66 64,103 127,73 z"/>
  <path d="m 470.42196,533.9497 c 46.7622,1.97139 67.1147,-59.02674 68.8647,-81.65174 1.75,-22.625 -13.8382,-81.80553 -77.4616,-83.54206 -63.6235,-1.73653 -89.8586,11.39535 -89.8586,83.89535 0,72.5 51.6932,79.32706 98.4555,81.29845 z"/>
</svg>
