<?xml version="1.0" encoding="UTF-8" standalone="no"?>
<svg width="127" height="100" viewBox="0 0 127 100" xmlns="http://www.w3.org/2000/svg">
  <path d="m 102.99079,25.517775 c 0,-2.09 1.69,-3.78 3.78,-3.78 2.09,0 3.78,1.69 3.78,3.78 v 48.5 c 0,2.09 -1.69,3.78 -3.78,3.78 -2.09,0 -3.78,-1.69 -3.78,-3.78 z m -100.9499989,8.5 c 0,-2.09 1.69,-3.78 3.78,-3.78 2.09,0 3.78,1.69 3.78,3.78 v 31.49 c 0,2.09 -1.69,3.78 -3.78,3.78 -2.09,0 -3.78,-1.69 -3.78,-3.78 z m 14.4199999,-8.5 c 0,-2.09 1.69,-3.78 3.78,-3.78 2.09,0 3.78,1.69 3.78,3.78 v 48.5 c 0,2.09 -1.69,3.78 -3.78,3.78 -2.09,0 -3.78,-1.69 -3.78,-3.78 z m 14.48,-9.42 c 0,-2.08 1.67,-3.76 3.72,-3.76 2.06,0 3.72,1.68 3.72,3.76 v 67.34 c 0,2.08 -1.67,3.76 -3.72,3.76 -2.06,0 -3.72,-1.68 -3.72,-3.76 z m 14.36,-10.12 c 0,-2.09 1.69,-3.78 3.78,-3.78 2.09,0 3.78,1.69 3.78,3.78 v 87.57 c 0,2.09 -1.69,3.78 -3.78,3.78 -2.09,0 -3.78,-1.69 -3.78,-3.78 z m 43.27,28.04 c 0,-2.09 1.69,-3.78 3.78,-3.78 2.09,0 3.78,1.69 3.78,3.78 v 31.49 c 0,2.09 -1.69,3.78 -3.78,3.78 -2.09,0 -3.78,-1.69 -3.78,-3.78 z m -14.42,-8.5 c 0,-2.09 1.69,-3.78 3.78,-3.78 2.09,0 3.78,1.69 3.78,3.78 v 48.5 c 0,2.09 -1.69,3.78 -3.78,3.78 -2.09,0 -3.78,-1.69 -3.78,-3.78 z m -14.37,-9.42 c 0,-2.08 1.67,-3.76 3.72,-3.76 2.06,0 3.72,1.68 3.72,3.76 v 67.34 c 0,2.08 -1.67,3.76 -3.72,3.76 -2.06,0 -3.72,-1.68 -3.72,-3.76 v -67.34 z m 57.689999,0 c 0,-2.08 1.67,-3.76 3.72,-3.76 2.06,0 3.72,1.68 3.72,3.76 v 67.34 c 0,2.08 -1.67,3.76 -3.72,3.76 -2.06,0 -3.72,-1.68 -3.72,-3.76 z" />
</svg>
