<?xml version="1.0" encoding="UTF-8" standalone="no"?>
<svg width="96" height="236" viewBox="0 0 96 236" xmlns="http://www.w3.org/2000/svg">
  <rect width="23.781258" height="87.047188" x="37.868927" y="61.541382" />
  <path d="m 66.985927,151.79938 h 0.771 V 25.096376 c 0,-11.129 -9.023,-20.1520002 -20.153,-20.1520002 -11.13,0 -20.152,9.0230002 -20.152,20.1520002 V 151.79938 h 0.771 c -14.135,7.106 -23.8399999,21.73 -23.8399999,38.63 0,23.871 19.3509999,43.222 43.2219999,43.222 23.871,0 43.222,-19.351 43.222,-43.222 -0.001,-16.9 -9.706,-31.524 -23.841,-38.63 z m -30.361,19.218 c -1.844,0.942 -17.594,9.677 -10.484,29.58 0.929,2.601 -0.427,5.462 -3.027,6.391 -0.556,0.199 -1.123,0.293 -1.682,0.293 -2.054,0 -3.979,-1.275 -4.709,-3.319 -8.2109999,-22.987 6.505,-37.452 15.433,-41.89 2.474,-1.228 5.475,-0.22 6.703,2.252 1.225,2.466 0.225,5.458 -2.234,6.693 z m 1.244,-22.42881 V 27.002376 c 0,-5.368 4.367,-9.735 9.735,-9.735 5.368,0 9.735,4.367 9.735,9.735 V 148.58857 Z"/>
</svg>
