<?xml version="1.0" encoding="UTF-8" standalone="no"?>
<svg width="350" height="378" xmlns="http://www.w3.org/2000/svg" viewBox="0 0 3500 3780">
  <path d="m1374.6996,20.4356c-2,8 -21,96 -41,195c-20,99 -45,207 -56,240c-36,112 -132,207 -242,240c-62,18 -169,19 -220.00002,0l-38,-13l8,41c4,23 8,74 8,113c0,61 -5,81 -38,147c-40,82 -90,133 -167,171c-63,32 -72,34 -337,61c-129,13 -236,25 -238,27c-1,2 77,73 174,159c195,172 229,218.00007 250,334.00007c21,111 -19,238 -101,321c-42,44 -42,48 9,59c46,9 143,75 176,118c16,21 40,63 55,95c23,49 27,70 27,147l-1,90.00004l-83,185c-46,102 -94,208 -107,237l-23,51l42,-13c450.00002,-148 470.00002,-152 586.00002,-116c118,37 222,145 252,261l12,49l44,-39c77,-67 125,-85 233,-85c109,0 160,18 228,79c25,23 111,150 224,329c115,183.99999 184,283.99999 185,271.99999c2,-11 19,-151 38,-311.99999c40,-340 52,-382 129,-458c76,-75 132,-99 236,-100c47,0 100,4 118,8l34,9l-8,-49c-24,-143 8,-247 105,-344c92,-92.00004 124,-102.00004 397,-129.00004c120,-11 232,-24 247,-28c27,-7 22,-12 -140,-155c-231,-203 -270,-267 -261,-426c6,-95 37,-168 104,-236.00007c37,-38 41,-47 26,-52c-61,-22 -87,-37 -133,-80c-28,-26 -63,-70 -77,-98c-24,-45 -27,-61 -27,-155c0,-84 4,-112 19,-140c10,-19 104,-173 207,-342c104,-168 189,-309 189,-311c0,-3 -145,58 -322,135c-178,77 -350,149 -383,160c-79,26 -172,20 -249,-17c-68,-32 -148,-117 -171,-182c-34,-96 -27,-91 -72,-50c-22,20 -67,49 -99,64c-51,24 -71,28 -154,28c-82,0 -103,-4 -151,-26c-83,-39 -124,-81 -262,-272c-171,-235 -155,-215 -161,-197zm524,825c152,14 359,108 500,227c131,111 252,305 302,484c32,115.00007 32,373.00007 0,489.00007c-74,269 -263,500.00004 -507,620.00004c-382,187 -826,109 -1121,-196.00004c-124,-129 -203,-271 -246.00002,-446c-30,-123 -31,-322 -1,-443.00007c87.00002,-345 337.00002,-609 670.00002,-705c92,-27 230,-45 298,-39c22,2 69,6 105,9z" />
  <path d="m1101.6996,1688.43567c5,278 13,318 77,391c54,61 110,82 217,81c107,0 182,-35 230,-107c45,-68 53,-121 53,-372l0,-225.00007l-90,0l-90,0l0,231.00007c0,188 -3,237 -15,264c-35,72 -134,72 -173,1c-14,-26 -18,-69 -20,-269l-3,-237.00007l-96,0l-95,0l5,242.00007z" />
  <path d="m1798.6996,1459.4356c0,3 24,81 54,173.00007c30,93 79,249 110,346l57,178l98,0l99,0l36,-103c20,-56 74,-214 120,-350l84,-248.00007l-100,3l-100,3l-59,200.00007c-32,110 -59,208 -59,217c0,10 -4,18 -10,18c-5,0 -10,-8 -11,-18c0,-9 -26,-107 -58,-217l-58,-200.00007l-101,-3c-56,-1 -102,-1 -102,1z" />
</svg>
